{"title":"The Fifth Element (1997) BluRay 1080p","uid":11225743,"size":4150127683,"categoryP":"video","categoryS":"hd___movies","magnet":"?xt=urn:btih:610dd1c455fde1ea74ee05676d276c1bf9e1dc97&amp;dn=The+Fifth+Element+%281997%29+BluRay+1080p&amp;tr=udp%3A%2F%2Ftracker.openbittorrent.com%3A80&amp;tr=udp%3A%2F%2Fopen.demonii.com%3A1337&amp;tr=udp%3A%2F%2Ftracker.coppersurfer.tk%3A6969&amp;tr=udp%3A%2F%2Fexodus.desync.com%3A6969","seeders":11,"leechers":0,"uploader":"AlienMethod","files":-1,"time":1413435225,"description":"Stax Double-Encode/MP4x264\n2-Channel AAC@192kbps (audio 1)\n6-Channel AC3@448kbps (audio 2)\nEnglish Subs Incl.\n\n&quot;In the colorful future, a cab driver unwittingly becomes the central figure in the search for a legendary cosmic weapon to keep Evil and Mr Zorg at bay.&quot;\n\nVideo\nID : 1\nFormat : AVC\nFormat/Info : Advanced Video Codec\nFormat profile : &lt;a class=&quot;__cf_email__&quot; href=&quot;/cdn-cgi/l/email-protection&quot; data-cfemail=&quot;044c6d636c4448312a34&quot;&gt;[email&amp;#160;protected]&lt;/a&gt;&lt;script cf-hash='f9e31' type=&quot;text/javascript&quot;&gt;\n/* &lt;![CDATA[ */!function(){try{var t=&quot;currentScript&quot;in document?document.currentScript:function(){for(var t=document.getElementsByTagName(&quot;script&quot;),e=t.length;e--;)if(t[e].getAttribute(&quot;cf-hash&quot;))return t[e]}();if(t&amp;&amp;t.previousSibling){var e,r,n,i,c=t.previousSibling,a=c.getAttribute(&quot;data-cfemail&quot;);if(a){for(e=&quot;&quot;,r=parseInt(a.substr(0,2),16),n=2;a.length-n;n+=2)i=parseInt(a.substr(n,2),16)^r,e+=String.fromCharCode(i);e=document.createTextNode(e),c.parentNode.replaceChild(e,c)}}}catch(u){}}();/* ]]&gt; */&lt;/script&gt;\nFormat settings, CABAC : Yes\nFormat settings, ReFrames : 8 frames\nCodec ID : avc1\nCodec ID/Info : Advanced Video Coding\nDuration : 2h 5mn\nBit rate : 3 718 Kbps\nMaximum bit rate : 24.8 Mbps\nWidth : 1 904 pixels\nHeight : 800 pixels\nDisplay aspect ratio : 2.40:1\nFrame rate mode : Constant\nFrame rate : 23.976 fps\nColor space : YUV\nChroma subsampling : 4:2:0\nBit depth : 8 bits\nScan type : Progressive\nBits/(Pixel*Frame) : 0.102\nStream size : 3.27 GiB (85%)\nTitle : The.Fifth.Element.VideoEncode_track1_und.h264\nWriting library : x264 core 142 r2479 dd79a61\nEncoded date : UTC 2014-10-15 22:14:39\nTagged date : UTC 2014-10-15 22:15:36\n\nAudio #1\nID : 2\nFormat : AAC\nFormat/Info : Advanced Audio Codec\nFormat profile : LC\nCodec ID : 40\nDuration : 2h 5mn\nBit rate mode : Variable\nBit rate : 225 Kbps\nMaximum bit rate : 263 Kbps\nChannel(s) : 2 channels\nChannel positions : Front: L R\nSampling rate : 48.0 KHz\nCompression mode : Lossy\nStream size : 203 MiB (5%)\nTitle : AAC.m4a\nEncoded date : UTC 2014-10-15 22:15:02\nTagged date : UTC 2014-10-15 22:15:36\n\nAudio #2\nID : 3\nFormat : AC-3\nFormat/Info : Audio Coding 3\nMode extension : CM (complete main)\nFormat settings, Endianness : Big\nCodec ID : ac-3\nDuration : 2h 5mn\nBit rate mode : Constant\nBit rate : 448 Kbps\nChannel(s) : 6 channels\nChannel positions : Front: L C R, Side: L R, LFE\nSampling rate : 48.0 KHz\nBit depth : 16 bits\nCompression mode : Lossy\nStream size : 403 MiB (10%)\nTitle : AC3.ac3\nEncoded date : UTC 2014-10-15 22:15:29\nTagged date : UTC 2014-10-15 22:15:36\n\nm/ AM m/","torrent":{"xt":"urn:btih:610dd1c455fde1ea74ee05676d276c1bf9e1dc97","amp;dn":"The+Fifth+Element+%281997%29+BluRay+1080p","amp;tr":["udp%3A%2F%2Ftracker.openbittorrent.com%3A80","udp%3A%2F%2Fopen.demonii.com%3A1337","udp%3A%2F%2Ftracker.coppersurfer.tk%3A6969","udp%3A%2F%2Fexodus.desync.com%3A6969"],"infoHash":"610dd1c455fde1ea74ee05676d276c1bf9e1dc97","infoHashBuffer":{"type":"Buffer","data":[97,13,209,196,85,253,225,234,116,238,5,103,109,39,108,27,249,225,220,151]},"announce":[],"urlList":[]}}